#!OML:ASF F:\VICON\USERDATA\INSTALL\rory3\rory3.ASF
:FULLY-SPECIFIED
:DEGREES
245
root 0.806533 17.2351 -15.4878 10.15 -0.808302 -9.45644
lowerback -8.58128 1.96229 8.17043
upperback -3.8405 1.92636 2.55236
thorax 0.980043 0.901003 -1.74859
lowerneck -14.2836 -3.67195 -7.53283
upperneck 24.3329 -4.68859 5.38501
head 10.4562 -2.22788 2.56867
rclavicle -1.87137e-015 9.69075e-015
rhumerus -34.7119 6.07117 -86.4036
rradius 37.7876
rwrist 2.39327
rhand -25.6597 -47.3677
rfingers 7.12502
rthumb 0.8744 -77.3457
lclavicle -1.87137e-015 9.69075e-015
lhumerus -44.3993 -4.09656 85.7989
lradius 30.6878
lwrist 9.20676
lhand -33.243 -21.5236
lfingers 7.12502
lthumb -6.44885 8.3582
rfemur -17.6178 10.053 35.0884
rtibia 31.2769
rfoot -18.5357 -10.7081
rtoes 4.79985
lfemur -44.8604 -1.28485 -11.0932
ltibia 49.1499
lfoot -12.658 8.30483
ltoes -10.1004
246
root 0.81403 17.2427 -15.3666 10.2091 -1.33189 -9.57106
lowerback -8.15915 2.16108 8.49247
upperback -4.09694 2.23137 2.46067
thorax 0.518761 1.02682 -2.00981
lowerneck -14.1115 -3.63029 -7.54875
upperneck 24.4059 -4.66116 5.45817
head 10.4493 -2.2115 2.60433
rclavicle 3.11906e-014 -4.24405e-014
rhumerus -34.9471 6.07073 -86.6428
rradius 38.0557
rwrist 2.48215
rhand -23.6331 -50.4753
rfingers 7.12502
rthumb 2.83166 -80.4363
lclavicle 3.11906e-014 -4.24405e-014
lhumerus -45.2215 -4.17229 85.7197
lradius 31.0221
lwrist 9.4419
lhand -32.8976 -17.9009
lfingers 7.12502
lthumb -6.11532 11.9909
rfemur -16.7658 10.1603 35.1494
rtibia 30.5795
rfoot -18.6147 -10.3772
rtoes 4.52448
lfemur -44.9119 -1.19685 -10.8835
ltibia 47.117
lfoot -12.2077 8.52457
ltoes -10.1219
247
root 0.821597 17.2497 -15.2528 10.4567 -1.61426 -9.59146
lowerback -8.54522 2.26426 8.59661
upperback -4.07418 2.31311 2.49373
thorax 0.765171 1.07524 -2.01139
lowerneck -13.7515 -3.57534 -7.71864
upperneck 24.103 -4.57982 5.55303
head 10.2699 -2.18357 2.67804
rclavicle 2.35125e-014 -7.10655e-015
rhumerus -34.58 6.53852 -86.7647
rradius 38.2047
rwrist 1.87329
rhand -23.4235 -50.0368
rfingers 7.12502
rthumb 3.03409 -79.9949
lclavicle 2.35125e-014 -7.10655e-015
lhumerus -45.4205 -3.87256 85.7158
lradius 31.1674
lwrist 9.84482
lhand -32.6028 -17.2934
lfingers 7.12502
lthumb -5.83075 12.6064
rfemur -16.1991 10.0713 35.0938
rtibia 29.8823
rfoot -18.6453 -10.0219
rtoes 4.22047
lfemur -45.2096 -1.24877 -10.7426
ltibia 45.0923
lfoot -11.4911 8.60909
ltoes -10.4446
248
root 0.822558 17.2579 -15.1386 10.6376 -1.64761 -9.64879
lowerback -8.70394 2.23803 8.68406
upperback -3.85621 2.23632 2.55571
thorax 1.07379 1.05247 -1.99334
lowerneck -14.3972 -3.63751 -7.79542
upperneck 24.0435 -4.59096 5.53372
head 10.3762 -2.18714 2.67503
rclavicle 1.6687e-015 1.95554e-014
rhumerus -33.7751 6.9324 -86.8349
rradius 38.3211
rwrist 1.45454
rhand -23.591 -49.8745
rfingers 7.12502
rthumb 2.87232 -79.835
lclavicle 1.6687e-015 1.95554e-014
lhumerus -45.079 -3.45012 85.605
lradius 31.1684
lwrist 9.97261
lhand -32.4643 -17.6871
lfingers 7.12502
lthumb -5.697 12.2163
rfemur -15.531 10.0107 35.1636
rtibia 29.0923
rfoot -18.5688 -9.95989
rtoes 3.7929
lfemur -45.4666 -1.40184 -10.5176
ltibia 43.0627
lfoot -10.6654 8.50351
ltoes -10.7499
249
root 0.824575 17.2643 -15.025 10.813 -2.02922 -9.81627
lowerback -8.55764 2.39223 8.90043
upperback -3.62218 2.42343 2.54943
thorax 1.26409 1.15616 -2.09963
lowerneck -15.5879 -3.79235 -7.65627
upperneck 24.1219 -4.71478 5.37167
head 10.6381 -2.23094 2.56408
rclavicle -4.32685e-014 -3.49116e-014
rhumerus -33.0281 6.90608 -86.8695
rradius 38.53
rwrist 1.6595
rhand -23.8997 -49.1727
rfingers 7.12502
rthumb 2.57422 -79.1369
lclavicle -4.32685e-014 -3.49116e-014
lhumerus -44.7257 -3.34513 85.5299
lradius 31.2831
lwrist 9.97083
lhand -32.5605 -18.5604
lfingers 7.12502
lthumb -5.78985 11.3405
rfemur -14.7954 10.1615 35.2939
rtibia 28.2795
rfoot -18.5577 -9.70678
rtoes 3.76006
lfemur -45.5812 -1.29361 -10.1863
ltibia 41.0591
lfoot -9.91226 8.40754
ltoes -9.97065
250
root 0.831601 17.2746 -14.9052 10.6943 -2.19064 -9.90452
lowerback -8.48678 2.55116 9.15616
upperback -3.77307 2.63479 2.44523
thorax 1.10194 1.24863 -2.33265
lowerneck -14.4491 -3.78878 -7.53332
upperneck 23.663 -4.82057 5.41115
head 10.2556 -2.28074 2.54988
rclavicle -9.54322e-016 -4.85035e-014
rhumerus -33.5194 6.65714 -87.0586
rradius 38.787
rwrist 2.02061
rhand -24.1706 -47.8832
rfingers 7.12502
rthumb 2.31258 -77.8505
lclavicle -9.54322e-016 -4.85035e-014
lhumerus -45.4429 -3.68578 85.5874
lradius 31.3436
lwrist 10.0199
lhand -32.7632 -18.4479
lfingers 7.12502
lthumb -5.98555 11.4476
rfemur -13.7288 10.1773 35.4123
rtibia 27.4361
rfoot -18.6491 -9.58318
rtoes 4.00732
lfemur -45.3396 -1.42036 -9.9435
ltibia 39.0786
lfoot -9.32133 8.23609
ltoes -9.41615
251
root 0.835389 17.2835 -14.7919 10.7516 -2.37483 -9.98275
lowerback -8.38845 2.64558 9.32052
upperback -3.88585 2.76781 2.4064
thorax 0.951448 1.3042 -2.45624
lowerneck -13.9684 -3.74399 -7.52835
upperneck 23.5056 -4.81383 5.51178
head 10.1079 -2.27327 2.58967
rclavicle 3.88251e-016 -1.37658e-014
rhumerus -33.6422 6.65043 -87.2505
rradius 38.793
rwrist 2.29958
rhand -24.7642 -46.3966
rfingers 7.12502
rthumb 1.73927 -76.3693
lclavicle 3.88251e-016 -1.37658e-014
lhumerus -45.8238 -3.75681 85.6198
lradius 31.2932
lwrist 10.0098
lhand -32.7066 -18.2842
lfingers 7.12502
lthumb -5.93099 11.6128
rfemur -12.9189 10.249 35.4883
rtibia 26.6416
rfoot -18.6649 -9.49057
rtoes 3.92919
lfemur -45.2769 -1.49038 -9.70124
ltibia 37.138
lfoot -8.75266 8.00997
ltoes -9.89159
252
root 0.84009 17.2906 -14.6806 10.9074 -2.63886 -9.91818
lowerback -8.0993 2.72301 9.31166
upperback -4.08757 2.92226 2.35312
thorax 0.599436 1.3619 -2.50819
lowerneck -13.839 -3.73113 -7.57783
upperneck 23.5842 -4.80675 5.55139
head 10.1131 -2.27238 2.61552
rclavicle 2.43387e-014 -1.31695e-014
rhumerus -33.6862 6.56811 -87.3877
rradius 39.0668
rwrist 1.95456
rhand -24.3006 -48.6298
rfingers 7.12502
rthumb 2.18702 -78.5983
lclavicle 2.43387e-014 -1.31695e-014
lhumerus -46.2291 -3.65034 85.5888
lradius 31.3788
lwrist 9.92232
lhand -32.3024 -18.5891
lfingers 7.12502
lthumb -5.5407 11.3185
rfemur -12.2263 10.1995 35.3603
rtibia 25.8729
rfoot -18.6716 -9.26023
rtoes 3.61359
lfemur -45.2327 -1.60104 -9.57558
ltibia 35.2253
lfoot -8.22355 7.71912
ltoes -10.3638
253
root 0.84561 17.2974 -14.5625 11.086 -2.98738 -9.72298
lowerback -8.31186 2.85704 9.16734
upperback -4.0944 3.08572 2.24607
thorax 0.727678 1.44876 -2.51412
lowerneck -13.5674 -3.75716 -7.60208
upperneck 23.3958 -4.8703 5.63098
head 10.0008 -2.29904 2.64035
rclavicle 7.00405e-015 7.60351e-015
rhumerus -33.4832 6.54194 -87.5241
rradius 39.3401
rwrist 1.39113
rhand -23.3495 -50.8215
rfingers 7.12502
rthumb 3.10553 -80.7786
lclavicle 7.00405e-015 7.60351e-015
lhumerus -46.3776 -3.62534 85.5446
lradius 31.4151
lwrist 9.89139
lhand -32.0098 -19.3934
lfingers 7.12502
lthumb -5.25821 10.5213
rfemur -11.5471 10.3088 35.066
rtibia 25.132
rfoot -18.5745 -9.08409
rtoes 3.15981
lfemur -45.1724 -1.74983 -9.54002
ltibia 33.4127
lfoot -7.64927 7.38724
ltoes -10.5377
254
root 0.851992 17.3064 -14.4386 11.2305 -3.44328 -9.60089
lowerback -8.46503 2.99206 9.11293
upperback -4.09432 3.25058 2.15901
thorax 0.833052 1.53451 -2.55014
lowerneck -13.4895 -3.70959 -7.4929
upperneck 23.2502 -4.82312 5.60691
head 9.92627 -2.27133 2.61884
rclavicle -3.82862e-014 -1.60519e-014
rhumerus -33.4185 6.78571 -87.7782
rradius 39.1194
rwrist 1.92679
rhand -24.2675 -49.1539
rfingers 7.12502
rthumb 2.21899 -79.1221
lclavicle -3.82862e-014 -1.60519e-014
lhumerus -46.566 -3.59449 85.5152
lradius 31.3932
lwrist 10.1235
lhand -32.0132 -20.027
lfingers 7.12502
lthumb -5.26144 9.88768
rfemur -10.7975 10.5903 34.839
rtibia 24.3878
rfoot -18.5105 -8.9257
rtoes 2.75428
lfemur -45.0599 -1.91067 -9.34756
ltibia 31.7305
lfoot -7.00755 7.15744
ltoes -10.5122
255
root 0.860966 17.3143 -14.3204 11.3082 -3.69157 -9.64586
lowerback -8.20986 2.98735 9.24217
upperback -4.05197 3.26173 2.1981
thorax 0.741577 1.53642 -2.59048
lowerneck -14.2394 -3.67221 -7.45451
upperneck 23.46 -4.69307 5.44854
head 10.1307 -2.21381 2.56735
rclavicle -6.09865e-015 -3.42407e-014
rhumerus -33.1082 7.0911 -87.9337
rradius 39.1603
rwrist 2.08018
rhand -24.316 -49.4235
rfingers 7.12502
rthumb 2.17218 -79.3922
lclavicle -6.09865e-015 -3.42407e-014
lhumerus -46.6091 -3.11521 85.4031
lradius 31.5237
lwrist 10.3996
lhand -32.0435 -19.5113
lfingers 7.12502
lthumb -5.29076 10.4026
rfemur -9.95758 10.6462 34.8375
rtibia 23.596
rfoot -18.2204 -8.86104
rtoes 1.20176
lfemur -44.9016 -2.25035 -8.90571
ltibia 30.1854
lfoot -6.48904 6.98764
ltoes -9.95472
256
root 0.870578 17.3149 -14.2057 11.3524 -3.76486 -9.80709
lowerback -8.26168 3.02137 9.5212
upperback -3.89607 3.2674 2.23362
thorax 0.945005 1.54831 -2.69945
lowerneck -14.4748 -3.68346 -7.4881
upperneck 23.3203 -4.67409 5.43782
head 10.125 -2.20493 2.5675
rclavicle -1.78735e-014 -3.90115e-014
rhumerus -32.6389 7.15712 -88.0361
rradius 39.1083
rwrist 2.07926
rhand -24.4275 -49.2112
rfingers 7.12502
rthumb 2.06448 -79.181
lclavicle -1.78735e-014 -3.90115e-014
lhumerus -46.492 -2.74348 85.2738
lradius 31.7042
lwrist 10.4105
lhand -31.811 -21.5343
lfingers 7.12502
lthumb -5.06624 8.3851
rfemur -9.05757 10.6492 35.0046
rtibia 22.7381
rfoot -18.2688 -8.66308
rtoes 1.54297
lfemur -44.7958 -2.69052 -8.33451
ltibia 28.8204
lfoot -6.01455 6.86906
ltoes -9.90469
257
root 0.880391 17.315 -14.0809 11.3956 -4.08388 -9.91994
lowerback -8.46402 3.1813 9.78911
upperback -4.03964 3.44322 2.18987
thorax 0.941321 1.62785 -2.86743
lowerneck -13.2964 -3.58919 -7.55131
upperneck 22.8946 -4.63261 5.58459
head 9.74957 -2.19312 2.64363
rclavicle 7.68582e-015 3.926e-015
rhumerus -32.9369 7.1259 -88.2729
rradius 38.998
rwrist 1.96623
rhand -24.9383 -47.8974
rfingers 7.12502
rthumb 1.57117 -77.8714
lclavicle 7.68582e-015 3.926e-015
lhumerus -46.9602 -2.59437 85.1479
lradius 31.7214
lwrist 10.1124
lhand -31.7724 -25.2207
lfingers 7.12502
lthumb -5.02901 4.69965
rfemur -8.15888 10.7644 35.0565
rtibia 21.9271
rfoot -18.2745 -8.42388
rtoes 1.5901
lfemur -44.6896 -3.056 -7.80296
ltibia 27.6473
lfoot -5.62625 6.91434
ltoes -9.22923
